<?xml version="1.0" encoding="UTF-8" standalone="no"?>
<!DOCTYPE svg PUBLIC "-//W3C//DTD SVG 1.1//EN" "http://www.w3.org/Graphics/SVG/1.1/DTD/svg11.dtd">
<svg width="100%" height="100%" viewBox="0 0 512 512" version="1.1" xmlns="http://www.w3.org/2000/svg" xmlns:xlink="http://www.w3.org/1999/xlink" xml:space="preserve" xmlns:serif="http://www.serif.com/" style="fill-rule:evenodd;clip-rule:evenodd;stroke-linecap:round;stroke-linejoin:round;stroke-miterlimit:1.5;">
    <path d="M50.914,160.779C80.642,105.828 118.546,70.296 163.813,52.25C169.761,50.68 176.953,51.02 183.389,55.55C187.303,58.304 189.232,61.577 193.584,67.233C197.967,79.844 197.712,93.243 187.928,103.652C146.335,124.458 114.6,155.512 98.259,201.568C93.83,213.975 90.62,226.217 88.67,238.345C82.896,274.248 88.162,309.15 105.542,344.331C128.707,389.292 161.528,414.942 200.232,428.824C238.091,440.758 275.03,441.655 310.946,430.28C351.928,418.497 386.263,389.621 413.648,342.875C435.613,288.103 435.386,238.616 416.562,193.556C397.924,154.91 367.82,125.014 327.816,101.907C319.123,90.275 317.913,77.894 325.514,64.633C335.193,53.249 345.372,49.865 355.866,51.517C389.974,64.963 424.186,96.929 459.536,147.668C491.705,206.975 503.354,285.101 467.548,362.541C435.279,432.332 389.264,462.855 343.723,482.724C283.452,502.346 227.484,503.891 176.924,482.724C112.104,453.364 65.718,410.597 43.63,350.158C19.568,282.126 22.533,219.099 50.914,160.779Z" style="fill:rgb(239,68,68);"/>
    <path d="M227.787,30.395C229.447,20.552 236.043,13.293 244.021,8.712C253.441,4.087 262.943,3.979 272.53,8.699C282.095,14.456 287.537,22.368 289.193,31.006L288.475,268.582C286.437,277.376 280.893,283.91 273.902,288.175C262.849,294.004 251.923,293.935 241.131,287.511C235.443,283.705 229.831,277.742 228.184,268.983L227.787,30.395Z" style="fill:rgb(239,68,68);"/>
</svg>
