<?xml version="1.0" encoding="UTF-8" standalone="no"?>
<!DOCTYPE svg PUBLIC "-//W3C//DTD SVG 1.1//EN" "http://www.w3.org/Graphics/SVG/1.1/DTD/svg11.dtd">
<svg width="100%" height="100%" viewBox="0 0 512 512" version="1.1" xmlns="http://www.w3.org/2000/svg" xmlns:xlink="http://www.w3.org/1999/xlink" xml:space="preserve" xmlns:serif="http://www.serif.com/" style="fill-rule:evenodd;clip-rule:evenodd;stroke-linecap:round;stroke-linejoin:round;stroke-miterlimit:1.5;">
    <path d="M343.639,14.19C301.244,45.758 267.063,83.076 248.95,131.641C231.107,185.858 225.916,236.492 251.681,285.512C269.697,319.789 302.558,352.602 349.102,376.56C396.393,401.974 440.509,405.171 482.943,396.59C475.106,430.467 427.453,464.676 390.074,483.086C336.416,507.267 276.507,510.195 210.71,493.101C142.163,475.059 87.449,428.29 50.466,344.693C26.254,275.79 29.457,208.132 58.66,141.657C81.876,88.809 130.37,49.575 187.037,20.563C238.052,-0.543 290.197,-3.551 343.639,14.19Z" style="fill:rgb(82,111,142);stroke:rgb(82,111,142);stroke-width:1px;"/>
</svg>
