<?xml version="1.0" encoding="UTF-8" standalone="no"?>
<!DOCTYPE svg PUBLIC "-//W3C//DTD SVG 1.1//EN" "http://www.w3.org/Graphics/SVG/1.1/DTD/svg11.dtd">
<svg width="100%" height="100%" viewBox="0 0 512 512" version="1.1" xmlns="http://www.w3.org/2000/svg" xmlns:xlink="http://www.w3.org/1999/xlink" xml:space="preserve" xmlns:serif="http://www.serif.com/" style="fill-rule:evenodd;clip-rule:evenodd;stroke-linejoin:round;stroke-miterlimit:2;">
    <g transform="matrix(9.72413,0,0,0.996454,-2318.61,0.444206)">
        <ellipse cx="264.883" cy="253.645" rx="13.202" ry="128.377" style="fill:rgb(82,111,142);"/>
    </g>
    <g transform="matrix(1,0,0,1.01527,0,-0.03593)">
        <path d="M214.169,102.076L257.872,-1.69L300.847,102.076C273.939,93.455 239.135,93.478 214.169,102.076Z" style="fill:rgb(82,111,142);"/>
    </g>
    <g transform="matrix(6.1149e-17,1,-1.01527,6.15827e-17,512.534,-2.22104)">
        <path d="M214.169,102.076L257.872,-1.69L300.847,102.076C273.939,93.455 239.135,93.478 214.169,102.076Z" style="fill:rgb(82,111,142);"/>
    </g>
    <g transform="matrix(0.707107,0.707107,-0.717902,0.717902,255.98,-107.264)">
        <path d="M214.169,102.076L257.872,-1.69L300.847,102.076C273.939,93.455 239.135,93.478 214.169,102.076Z" style="fill:rgb(82,111,142);"/>
    </g>
    <g transform="matrix(-0.707107,0.707107,-0.717902,-0.717902,620.774,253.316)">
        <path d="M214.169,102.076L257.872,-1.69L300.847,102.076C273.939,93.455 239.135,93.478 214.169,102.076Z" style="fill:rgb(82,111,142);"/>
    </g>
    <g transform="matrix(-1,0,0,-1.01527,515.731,509.684)">
        <path d="M214.169,102.076L257.872,-1.69L300.847,102.076C273.939,93.455 239.135,93.478 214.169,102.076Z" style="fill:rgb(82,111,142);"/>
    </g>
    <g transform="matrix(-0.707107,-0.707107,0.717902,-0.717902,259.009,617.196)">
        <path d="M214.169,102.076L257.872,-1.69L300.847,102.076C273.939,93.455 239.135,93.478 214.169,102.076Z" style="fill:rgb(82,111,142);"/>
    </g>
    <g transform="matrix(2.22045e-16,-1,1.01527,2.22045e-16,2.7271,512.61)">
        <path d="M214.169,102.076L257.872,-1.69L300.847,102.076C273.939,93.455 239.135,93.478 214.169,102.076Z" style="fill:rgb(82,111,142);"/>
    </g>
    <g transform="matrix(0.707107,-0.707107,0.717902,0.717902,-104.785,257.345)">
        <path d="M214.169,102.076L257.872,-1.69L300.847,102.076C273.939,93.455 239.135,93.478 214.169,102.076Z" style="fill:rgb(82,111,142);"/>
    </g>
</svg>
