<?xml version="1.0" encoding="UTF-8" standalone="no"?>
<!DOCTYPE svg PUBLIC "-//W3C//DTD SVG 1.1//EN" "http://www.w3.org/Graphics/SVG/1.1/DTD/svg11.dtd">
<svg width="100%" height="100%" viewBox="0 0 512 512" version="1.1" xmlns="http://www.w3.org/2000/svg" xmlns:xlink="http://www.w3.org/1999/xlink" xml:space="preserve" xmlns:serif="http://www.serif.com/" style="fill-rule:evenodd;clip-rule:evenodd;stroke-linecap:round;stroke-linejoin:round;stroke-miterlimit:1.5;">
    <path d="M205.089,456.69L308.475,456.536C307.769,471.095 302.585,482.882 293.289,492.123C283.043,502.477 270.301,507.386 255.555,507.923C241.197,506.989 228.548,501.953 218.281,491.203C211.051,482.733 206.591,471.296 205.089,456.69Z" style="fill:rgb(82,111,142);stroke:rgb(82,111,142);stroke-width:1px;"/>
    <path d="M48.574,428.946L48.106,404.136L101.003,352.644L101.317,207.142C110.401,128.149 147.94,77.612 217.741,59.336C217.037,38.76 218.618,25.61 223.027,21.652C229.86,8.452 241.346,2.866 255.21,1.172C270.261,2.301 281.181,8.595 288.563,19.311C294.182,28.679 296.779,41.322 294.729,58.999C358.92,75.093 400.501,120.508 411.05,198.598L412,352.382L463.521,404.043L464.106,429.204L48.574,428.946Z" style="fill:rgb(82,111,142);stroke:rgb(82,111,142);stroke-width:1px;"/>
</svg>
