<?xml version="1.0" encoding="UTF-8" standalone="no"?>
<!DOCTYPE svg PUBLIC "-//W3C//DTD SVG 1.1//EN" "http://www.w3.org/Graphics/SVG/1.1/DTD/svg11.dtd">
<svg width="100%" height="100%" viewBox="0 0 512 512" version="1.1" xmlns="http://www.w3.org/2000/svg" xmlns:xlink="http://www.w3.org/1999/xlink" xml:space="preserve" xmlns:serif="http://www.serif.com/" style="fill-rule:evenodd;clip-rule:evenodd;stroke-linejoin:round;stroke-miterlimit:2;">
    <g transform="matrix(1,0,0,1,6.11998,16.0914)">
        <path d="M100.302,347.69L25.468,383.304C22.916,384.518 19.859,383.432 18.645,380.881L14.244,371.635C13.03,369.083 14.116,366.026 16.667,364.811L483.606,142.593C486.158,141.379 489.216,142.465 490.43,145.016L494.83,154.263C496.044,156.814 494.959,159.872 492.407,161.086L416.771,197.081L417.211,481.038C403.169,510.128 357.631,501.706 343.922,488.79L294.231,429.23C285.985,419.087 248.148,410.378 233.044,427.442L174.201,488.525C154.67,507.583 120.595,507.472 101.064,472.823L100.302,347.69Z" style="fill:rgb(98,135,175);"/>
    </g>
    <g transform="matrix(1,0,0,0.96223,6.58281,-4.81787)">
        <path d="M100.171,326.148L98.492,50.476C101.34,37.785 94.712,11.247 124.586,9.864L386.428,8.075C419.446,6.579 414.572,27.591 416.53,40.936L416.756,187.32C382.467,205.528 343.954,224.58 290.353,249.217L100.171,343.278L100.171,326.148Z" style="fill:rgb(98,135,175);"/>
    </g>
</svg>
