<?xml version="1.0" encoding="UTF-8" standalone="no"?>
<!DOCTYPE svg PUBLIC "-//W3C//DTD SVG 1.1//EN" "http://www.w3.org/Graphics/SVG/1.1/DTD/svg11.dtd">
<svg width="100%" height="100%" viewBox="0 0 512 512" version="1.1" xmlns="http://www.w3.org/2000/svg" xmlns:xlink="http://www.w3.org/1999/xlink" xml:space="preserve" xmlns:serif="http://www.serif.com/" style="fill-rule:evenodd;clip-rule:evenodd;stroke-linejoin:round;stroke-miterlimit:2;">
    <path d="M84.48,324.023C64.241,307.903 42.097,281.593 19.907,247.919C38.961,219.393 60.063,190.534 90.331,163.84C121.337,136.496 158.962,114.989 193.868,107.15C234.712,97.977 264.744,95.35 297.326,100.937L255.634,148.48C236.039,150.909 218.318,155.957 205.897,165.303C193.728,175.758 183.949,186.896 177.371,198.949C170.994,211.96 166.589,225.366 164.206,239.177L84.48,324.023Z" style="fill:rgb(240,240,240);"/>
    <path d="M91.096,389.342L394.2,71.61L428.138,106.719L397.711,141.242C432.57,164.771 466.584,199.282 499.526,247.738C475.371,287.498 444.595,321.298 407.658,349.553C377.033,371.976 343.19,386.355 306.429,393.439C256.996,403.594 211.194,398.969 168.92,379.98L123.864,425.621L91.096,389.342ZM211.636,334.339C238.862,351.301 269.45,352.291 302.918,339.605C321.349,329.706 335.722,315.926 344.791,298.224C356.324,274.513 358.71,252.07 354.784,236.458C351.011,221.455 346.589,209.061 342.304,197.637L313.45,229.013C315.046,235.427 316.008,242.262 316.376,249.493C315.616,260.394 315.313,269.367 310.053,280.267C304.584,291.602 292.292,301.42 276.001,305.082C264.162,307.17 252.085,307.121 239.722,304.497L211.636,334.339Z" style="fill:rgb(240,240,240);"/>
</svg>
