<?xml version="1.0" encoding="UTF-8" standalone="no"?>
<!DOCTYPE svg PUBLIC "-//W3C//DTD SVG 1.1//EN" "http://www.w3.org/Graphics/SVG/1.1/DTD/svg11.dtd">
<svg width="100%" height="100%" viewBox="0 0 512 512" version="1.1" xmlns="http://www.w3.org/2000/svg" xmlns:xlink="http://www.w3.org/1999/xlink" xml:space="preserve" xmlns:serif="http://www.serif.com/" style="fill-rule:evenodd;clip-rule:evenodd;stroke-linejoin:round;stroke-miterlimit:2;">
    <g transform="matrix(1.06488,0,0,1.06488,-114.749,-9.09595)">
        <path d="M126.266,241.302C240.045,61.07 439.883,46.531 576.694,241.566C456.051,435.925 230.877,420.125 126.266,241.302ZM350.972,147.991C299.381,147.991 257.495,189.877 257.495,241.468C257.495,293.059 299.381,334.945 350.972,334.945C402.563,334.945 444.448,293.059 444.448,241.468C444.448,189.877 402.563,147.991 350.972,147.991ZM351.108,185.414C382.212,185.414 407.465,210.667 407.465,241.772C407.465,272.876 382.212,298.129 351.108,298.129C320.003,298.129 294.75,272.876 294.75,241.772C294.75,210.667 320.003,185.414 351.108,185.414Z" style="fill:rgb(240,240,240);"/>
    </g>
</svg>
