<?xml version="1.0" encoding="UTF-8" standalone="no"?>
<!DOCTYPE svg PUBLIC "-//W3C//DTD SVG 1.1//EN" "http://www.w3.org/Graphics/SVG/1.1/DTD/svg11.dtd">
<svg width="100%" height="100%" viewBox="0 0 512 512" version="1.1" xmlns="http://www.w3.org/2000/svg" xmlns:xlink="http://www.w3.org/1999/xlink" xml:space="preserve" xmlns:serif="http://www.serif.com/" style="fill-rule:evenodd;clip-rule:evenodd;stroke-linejoin:round;stroke-miterlimit:2;">
    <path d="M180.753,141.858C66.686,215.234 306.672,436.374 377.821,349.275C386.066,337.509 388.67,324.762 386.515,311.186L333.108,283.034C328.947,281.952 326.275,282.607 324.828,284.69L304.541,310.358C302.598,313.503 300.014,315.049 296.261,313.671C260.968,301.638 232.175,278.575 211.804,241.219C210.009,235.283 210.841,232.726 212.218,230.869L227.95,209.755C229.486,207.595 229.879,204.577 229.606,201.061L207.778,146.057C205.59,144.578 203.876,142.33 200.423,141.359C195.302,139.919 187.78,140.271 180.753,141.858Z" style="fill:rgb(240,240,240);"/>
    <path d="M32.802,501.062L65.923,372.616C5.933,257.68 46.045,144.124 95.648,88.825C149.159,29.169 267.858,-29.158 396.223,48.499C652.407,245.07 403.012,607.776 157.684,464.931L32.802,501.062ZM89.476,444.186L162.756,423.971C222.798,460.319 285.762,466.471 352.273,435.974C413.861,403.076 450.554,351.835 460.93,281.201C467.404,210.422 445.36,149.828 395.231,99.265C334.831,51.143 270.408,39.234 201.923,63.888C149.293,83.813 111.745,121.219 89.476,176.335C76.77,205.408 71.48,237.447 74.946,272.989C78.966,307.065 90.392,339.432 108.428,370.274L89.476,444.186Z" style="fill:rgb(240,240,240);"/>
</svg>
