<?xml version="1.0" encoding="UTF-8" standalone="no"?>
<!DOCTYPE svg PUBLIC "-//W3C//DTD SVG 1.1//EN" "http://www.w3.org/Graphics/SVG/1.1/DTD/svg11.dtd">
<svg width="100%" height="100%" viewBox="0 0 512 512" version="1.1" xmlns="http://www.w3.org/2000/svg" xmlns:xlink="http://www.w3.org/1999/xlink" xml:space="preserve" xmlns:serif="http://www.serif.com/" style="fill-rule:evenodd;clip-rule:evenodd;stroke-linejoin:round;stroke-miterlimit:2;">
    <g transform="matrix(1,0,0,1,-40,0)">
        <path d="M308.515,276.132C307.053,277.921 306.174,280.428 305.254,284.278L302.602,335.813L164.419,335.625C151.674,334.167 141.69,318.766 141.819,309.043L141.017,189.852C141.356,180.321 139.213,176.1 148.941,166.545L243.421,91.537C259.922,77.178 277.226,78.344 295.18,92.082L386.168,162.911C392.84,168.375 394.963,175.094 395.163,181.9L395.252,265.68L317.119,271.78C313.192,272.803 310.75,273.807 309.046,275.539C312.478,271.649 315.866,266.59 319.695,259.291C322.632,253.692 321.867,246.062 316.89,242.358C314.43,240.527 305.777,240.138 302.637,246.7C302.551,246.881 299.479,254.223 296.695,257.847C293.033,263.119 287.331,267.966 278.917,271.291C271.439,274.246 261.699,273.42 253.584,269.513C247.003,266.345 242.394,261.2 238.739,254.18C237.177,251.18 234.143,244.421 232.828,243.313C227.652,238.952 218.668,238.947 216.606,248.669C215.336,254.654 216.664,257.95 218.65,262.158C221.568,268.337 234.255,285.409 247.472,289.458C257.882,292.646 281.021,296.395 294.028,287.347C299.637,283.94 304.132,280.941 308.515,276.132ZM309.046,275.539C308.869,275.74 308.692,275.937 308.515,276.132C308.684,275.925 308.86,275.728 309.046,275.539Z" style="fill:rgb(35,116,171);"/>
    </g>
    <g transform="matrix(1,0,0,1,-40.7301,-0.365035)">
        <g id="Layer1">
            <path d="M302.953,338.879L305.581,286.313C306.115,276.785 311.57,272.672 319.891,271.711L418.306,264.702C429.081,265.486 433.133,273.166 435.244,281.64L451.89,372.462C453.457,380.673 452.285,393.374 439.624,394.365L317.555,402.542C310.295,403.952 300.283,399.282 301.201,386.188L302.953,338.879ZM332.016,298.736C331.421,303.159 331.988,307.582 333.885,312.006C335.046,315.356 338.83,320.182 343.978,324.528C353.722,330.677 360.384,332.727 370.02,332.951C380.311,333.191 388.031,331.483 397.562,323.81C399.809,322.002 404.124,316.675 405.939,313.276C407.693,310.368 409.01,302.267 408.272,293.876C408.583,289.515 404.347,286.4 401.73,286.774C397.908,287.645 395.584,289.64 395.749,293.502L395.749,301.165C395.489,307.391 394.252,312.46 389.201,316.03C383.063,320.366 372.54,322.489 367.155,321.783C357.86,320.565 353.362,317.809 347.716,308.828L345.099,299.67C344.357,294.819 342.541,291.311 337.81,291.446C333.376,292.208 331.963,294.983 332.016,298.736Z" style="fill:rgb(0,183,235);"/>
        </g>
    </g>
</svg>
